<?xml version="1.0" encoding="UTF-8" standalone="no"?>
<!DOCTYPE svg PUBLIC "-//W3C//DTD SVG 1.1//EN"
 "http://www.w3.org/Graphics/SVG/1.1/DTD/svg11.dtd">
<!-- Generated by graphviz version 2.36.0 (20140111.2315)
 -->
<!-- Title: controllers_diagram Pages: 1 -->
<svg width="699pt" height="697pt"
 viewBox="0.00 0.00 699.38 697.00" xmlns="http://www.w3.org/2000/svg" xmlns:xlink="http://www.w3.org/1999/xlink">
<g id="graph0" class="graph" transform="scale(1 1) rotate(0) translate(4 693)">
<title>controllers_diagram</title>
<polygon fill="white" stroke="none" points="-4,4 -4,-693 695.375,-693 695.375,4 -4,4"/>
<!-- _diagram_info -->
<g id="node1" class="node"><title>_diagram_info</title>
<text text-anchor="start" x="492" y="-674.6" font-family="Times,serif" font-size="13.00">Controllers diagram</text>
<text text-anchor="start" x="492" y="-661.6" font-family="Times,serif" font-size="13.00">Date: Apr 07 2014 &#45; 15:04</text>
<text text-anchor="start" x="492" y="-648.6" font-family="Times,serif" font-size="13.00">Migration version: 20140406080552</text>
<text text-anchor="start" x="492" y="-635.6" font-family="Times,serif" font-size="13.00">Generated by RailRoady 1.1.1</text>
<text text-anchor="start" x="492" y="-622.6" font-family="Times,serif" font-size="13.00">http://railroady.prestonlee.com</text>
</g>
<!-- ApplicationController -->
<g id="node2" class="node"><title>ApplicationController</title>
<path fill="none" stroke="black" d="M159.945,-277.909C159.945,-277.909 275.586,-277.909 275.586,-277.909 281.586,-277.909 287.586,-283.909 287.586,-289.909 287.586,-289.909 287.586,-371.909 287.586,-371.909 287.586,-377.909 281.586,-383.909 275.586,-383.909 275.586,-383.909 159.945,-383.909 159.945,-383.909 153.945,-383.909 147.945,-377.909 147.945,-371.909 147.945,-371.909 147.945,-289.909 147.945,-289.909 147.945,-283.909 153.945,-277.909 159.945,-277.909"/>
<text text-anchor="middle" x="217.765" y="-368.709" font-family="Times,serif" font-size="14.00">ApplicationController</text>
<polyline fill="none" stroke="black" points="147.945,-361.909 287.586,-361.909 "/>
<polyline fill="none" stroke="black" points="147.945,-337.909 287.586,-337.909 "/>
<polyline fill="none" stroke="black" points="147.945,-313.909 287.586,-313.909 "/>
<text text-anchor="start" x="155.945" y="-298.709" font-family="Times,serif" font-size="14.00">_layout</text>
<text text-anchor="start" x="155.945" y="-284.709" font-family="Times,serif" font-size="14.00">current_user</text>
</g>
<!-- CampaignsController -->
<g id="node3" class="node"><title>CampaignsController</title>
<path fill="none" stroke="black" d="M315.986,-57.4726C315.986,-57.4726 428.524,-57.4726 428.524,-57.4726 434.524,-57.4726 440.524,-63.4726 440.524,-69.4726 440.524,-69.4726 440.524,-289.473 440.524,-289.473 440.524,-295.473 434.524,-301.473 428.524,-301.473 428.524,-301.473 315.986,-301.473 315.986,-301.473 309.986,-301.473 303.986,-295.473 303.986,-289.473 303.986,-289.473 303.986,-69.4726 303.986,-69.4726 303.986,-63.4726 309.986,-57.4726 315.986,-57.4726"/>
<text text-anchor="middle" x="372.255" y="-286.273" font-family="Times,serif" font-size="14.00">CampaignsController</text>
<polyline fill="none" stroke="black" points="303.986,-279.473 440.524,-279.473 "/>
<text text-anchor="start" x="311.986" y="-264.273" font-family="Times,serif" font-size="14.00">create</text>
<text text-anchor="start" x="311.986" y="-250.273" font-family="Times,serif" font-size="14.00">destroy</text>
<text text-anchor="start" x="311.986" y="-236.273" font-family="Times,serif" font-size="14.00">discover</text>
<text text-anchor="start" x="311.986" y="-222.273" font-family="Times,serif" font-size="14.00">edit</text>
<text text-anchor="start" x="311.986" y="-208.273" font-family="Times,serif" font-size="14.00">index</text>
<text text-anchor="start" x="311.986" y="-194.273" font-family="Times,serif" font-size="14.00">mine</text>
<text text-anchor="start" x="311.986" y="-180.273" font-family="Times,serif" font-size="14.00">new</text>
<text text-anchor="start" x="311.986" y="-166.273" font-family="Times,serif" font-size="14.00">show</text>
<text text-anchor="start" x="311.986" y="-152.273" font-family="Times,serif" font-size="14.00">update</text>
<polyline fill="none" stroke="black" points="303.986,-145.473 440.524,-145.473 "/>
<polyline fill="none" stroke="black" points="303.986,-121.473 440.524,-121.473 "/>
<text text-anchor="start" x="311.986" y="-106.273" font-family="Times,serif" font-size="14.00">_layout</text>
<text text-anchor="start" x="311.986" y="-92.2726" font-family="Times,serif" font-size="14.00">campaign_params</text>
<text text-anchor="start" x="311.986" y="-78.2726" font-family="Times,serif" font-size="14.00">is_owner</text>
<text text-anchor="start" x="311.986" y="-64.2726" font-family="Times,serif" font-size="14.00">set_campaign</text>
</g>
<!-- ApplicationController&#45;&gt;CampaignsController -->
<g id="edge1" class="edge"><title>ApplicationController&#45;&gt;CampaignsController</title>
<path fill="none" stroke="black" d="M272.233,-277.518C282.484,-267.47 293.322,-256.845 303.933,-246.444"/>
</g>
<!-- CostsController -->
<g id="node4" class="node"><title>CostsController</title>
<path fill="none" stroke="black" d="M173.831,-0.5C173.831,-0.5 254.5,-0.5 254.5,-0.5 260.5,-0.5 266.5,-6.5 266.5,-12.5 266.5,-12.5 266.5,-190.5 266.5,-190.5 266.5,-196.5 260.5,-202.5 254.5,-202.5 254.5,-202.5 173.831,-202.5 173.831,-202.5 167.831,-202.5 161.831,-196.5 161.831,-190.5 161.831,-190.5 161.831,-12.5 161.831,-12.5 161.831,-6.5 167.831,-0.5 173.831,-0.5"/>
<text text-anchor="middle" x="214.165" y="-187.3" font-family="Times,serif" font-size="14.00">CostsController</text>
<polyline fill="none" stroke="black" points="161.831,-180.5 266.5,-180.5 "/>
<text text-anchor="start" x="169.831" y="-165.3" font-family="Times,serif" font-size="14.00">create</text>
<text text-anchor="start" x="169.831" y="-151.3" font-family="Times,serif" font-size="14.00">destroy</text>
<text text-anchor="start" x="169.831" y="-137.3" font-family="Times,serif" font-size="14.00">edit</text>
<text text-anchor="start" x="169.831" y="-123.3" font-family="Times,serif" font-size="14.00">index</text>
<text text-anchor="start" x="169.831" y="-109.3" font-family="Times,serif" font-size="14.00">new</text>
<text text-anchor="start" x="169.831" y="-95.3" font-family="Times,serif" font-size="14.00">show</text>
<text text-anchor="start" x="169.831" y="-81.3" font-family="Times,serif" font-size="14.00">update</text>
<polyline fill="none" stroke="black" points="161.831,-74.5 266.5,-74.5 "/>
<polyline fill="none" stroke="black" points="161.831,-50.5 266.5,-50.5 "/>
<text text-anchor="start" x="169.831" y="-35.3" font-family="Times,serif" font-size="14.00">_layout</text>
<text text-anchor="start" x="169.831" y="-21.3" font-family="Times,serif" font-size="14.00">cost_params</text>
<text text-anchor="start" x="169.831" y="-7.3" font-family="Times,serif" font-size="14.00">set_cost</text>
</g>
<!-- ApplicationController&#45;&gt;CostsController -->
<g id="edge2" class="edge"><title>ApplicationController&#45;&gt;CostsController</title>
<path fill="none" stroke="black" d="M216.93,-277.701C216.579,-255.332 216.159,-228.532 215.753,-202.665"/>
</g>
<!-- DonationsController -->
<g id="node5" class="node"><title>DonationsController</title>
<path fill="none" stroke="black" d="M12.0826,-375.468C12.0826,-375.468 119.179,-375.468 119.179,-375.468 125.179,-375.468 131.179,-381.468 131.179,-387.468 131.179,-387.468 131.179,-579.468 131.179,-579.468 131.179,-585.468 125.179,-591.468 119.179,-591.468 119.179,-591.468 12.0826,-591.468 12.0826,-591.468 6.08259,-591.468 0.0825863,-585.468 0.0825863,-579.468 0.0825863,-579.468 0.0825863,-387.468 0.0825863,-387.468 0.0825863,-381.468 6.08259,-375.468 12.0826,-375.468"/>
<text text-anchor="middle" x="65.6309" y="-576.268" font-family="Times,serif" font-size="14.00">DonationsController</text>
<polyline fill="none" stroke="black" points="0.0825863,-569.468 131.179,-569.468 "/>
<text text-anchor="start" x="8.08259" y="-554.268" font-family="Times,serif" font-size="14.00">create</text>
<text text-anchor="start" x="8.08259" y="-540.268" font-family="Times,serif" font-size="14.00">destroy</text>
<text text-anchor="start" x="8.08259" y="-526.268" font-family="Times,serif" font-size="14.00">edit</text>
<text text-anchor="start" x="8.08259" y="-512.268" font-family="Times,serif" font-size="14.00">index</text>
<text text-anchor="start" x="8.08259" y="-498.268" font-family="Times,serif" font-size="14.00">mine</text>
<text text-anchor="start" x="8.08259" y="-484.268" font-family="Times,serif" font-size="14.00">new</text>
<text text-anchor="start" x="8.08259" y="-470.268" font-family="Times,serif" font-size="14.00">show</text>
<text text-anchor="start" x="8.08259" y="-456.268" font-family="Times,serif" font-size="14.00">update</text>
<polyline fill="none" stroke="black" points="0.0825863,-449.468 131.179,-449.468 "/>
<polyline fill="none" stroke="black" points="0.0825863,-425.468 131.179,-425.468 "/>
<text text-anchor="start" x="8.08259" y="-410.268" font-family="Times,serif" font-size="14.00">_layout</text>
<text text-anchor="start" x="8.08259" y="-396.268" font-family="Times,serif" font-size="14.00">donation_params</text>
<text text-anchor="start" x="8.08259" y="-382.268" font-family="Times,serif" font-size="14.00">set_donation</text>
</g>
<!-- ApplicationController&#45;&gt;DonationsController -->
<g id="edge3" class="edge"><title>ApplicationController&#45;&gt;DonationsController</title>
<path fill="none" stroke="black" d="M164.556,-384.267C153.845,-395.007 142.468,-406.417 131.388,-417.527"/>
</g>
<!-- SessionsController -->
<g id="node6" class="node"><title>SessionsController</title>
<path fill="none" stroke="black" d="M325.786,-416.603C325.786,-416.603 423.566,-416.603 423.566,-416.603 429.566,-416.603 435.566,-422.603 435.566,-428.603 435.566,-428.603 435.566,-522.603 435.566,-522.603 435.566,-528.603 429.566,-534.603 423.566,-534.603 423.566,-534.603 325.786,-534.603 325.786,-534.603 319.786,-534.603 313.786,-528.603 313.786,-522.603 313.786,-522.603 313.786,-428.603 313.786,-428.603 313.786,-422.603 319.786,-416.603 325.786,-416.603"/>
<text text-anchor="middle" x="374.676" y="-519.403" font-family="Times,serif" font-size="14.00">SessionsController</text>
<polyline fill="none" stroke="black" points="313.786,-512.603 435.566,-512.603 "/>
<text text-anchor="start" x="321.786" y="-497.403" font-family="Times,serif" font-size="14.00">create</text>
<text text-anchor="start" x="321.786" y="-483.403" font-family="Times,serif" font-size="14.00">destroy</text>
<text text-anchor="start" x="321.786" y="-469.403" font-family="Times,serif" font-size="14.00">new</text>
<polyline fill="none" stroke="black" points="313.786,-462.603 435.566,-462.603 "/>
<polyline fill="none" stroke="black" points="313.786,-438.603 435.566,-438.603 "/>
<text text-anchor="start" x="321.786" y="-423.403" font-family="Times,serif" font-size="14.00">_layout</text>
</g>
<!-- ApplicationController&#45;&gt;SessionsController -->
<g id="edge4" class="edge"><title>ApplicationController&#45;&gt;SessionsController</title>
<path fill="none" stroke="black" d="M275.302,-383.966C287.81,-395.5 301.082,-407.739 313.717,-419.39"/>
</g>
<!-- UsersController -->
<g id="node7" class="node"><title>UsersController</title>
<path fill="none" stroke="black" d="M184.742,-447.131C184.742,-447.131 266.169,-447.131 266.169,-447.131 272.169,-447.131 278.169,-453.131 278.169,-459.131 278.169,-459.131 278.169,-665.131 278.169,-665.131 278.169,-671.131 272.169,-677.131 266.169,-677.131 266.169,-677.131 184.742,-677.131 184.742,-677.131 178.742,-677.131 172.742,-671.131 172.742,-665.131 172.742,-665.131 172.742,-459.131 172.742,-459.131 172.742,-453.131 178.742,-447.131 184.742,-447.131"/>
<text text-anchor="middle" x="225.456" y="-661.931" font-family="Times,serif" font-size="14.00">UsersController</text>
<polyline fill="none" stroke="black" points="172.742,-655.131 278.169,-655.131 "/>
<text text-anchor="start" x="180.742" y="-639.931" font-family="Times,serif" font-size="14.00">charge</text>
<text text-anchor="start" x="180.742" y="-625.931" font-family="Times,serif" font-size="14.00">create</text>
<text text-anchor="start" x="180.742" y="-611.931" font-family="Times,serif" font-size="14.00">destroy</text>
<text text-anchor="start" x="180.742" y="-597.931" font-family="Times,serif" font-size="14.00">edit</text>
<text text-anchor="start" x="180.742" y="-583.931" font-family="Times,serif" font-size="14.00">index</text>
<text text-anchor="start" x="180.742" y="-569.931" font-family="Times,serif" font-size="14.00">new</text>
<text text-anchor="start" x="180.742" y="-555.931" font-family="Times,serif" font-size="14.00">show</text>
<text text-anchor="start" x="180.742" y="-541.931" font-family="Times,serif" font-size="14.00">update</text>
<text text-anchor="start" x="180.742" y="-527.931" font-family="Times,serif" font-size="14.00">update_money</text>
<polyline fill="none" stroke="black" points="172.742,-521.131 278.169,-521.131 "/>
<polyline fill="none" stroke="black" points="172.742,-497.131 278.169,-497.131 "/>
<text text-anchor="start" x="180.742" y="-481.931" font-family="Times,serif" font-size="14.00">_layout</text>
<text text-anchor="start" x="180.742" y="-467.931" font-family="Times,serif" font-size="14.00">set_user</text>
<text text-anchor="start" x="180.742" y="-453.931" font-family="Times,serif" font-size="14.00">user_params</text>
</g>
<!-- ApplicationController&#45;&gt;UsersController -->
<g id="edge5" class="edge"><title>ApplicationController&#45;&gt;UsersController</title>
<path fill="none" stroke="black" d="M219.53,-383.956C220.155,-402.755 220.885,-424.713 221.615,-446.664"/>
</g>
<!-- WelcomeController -->
<g id="node8" class="node"><title>WelcomeController</title>
<path fill="none" stroke="black" d="M12,-139.91C12,-139.91 114.065,-139.91 114.065,-139.91 120.065,-139.91 126.065,-145.91 126.065,-151.91 126.065,-151.91 126.065,-217.91 126.065,-217.91 126.065,-223.91 120.065,-229.91 114.065,-229.91 114.065,-229.91 12,-229.91 12,-229.91 6,-229.91 -2.84217e-14,-223.91 -2.84217e-14,-217.91 -2.84217e-14,-217.91 -2.84217e-14,-151.91 -2.84217e-14,-151.91 -2.84217e-14,-145.91 6,-139.91 12,-139.91"/>
<text text-anchor="middle" x="63.0327" y="-214.71" font-family="Times,serif" font-size="14.00">WelcomeController</text>
<polyline fill="none" stroke="black" points="-2.84217e-14,-207.91 126.065,-207.91 "/>
<text text-anchor="start" x="8" y="-192.71" font-family="Times,serif" font-size="14.00">index</text>
<polyline fill="none" stroke="black" points="-2.84217e-14,-185.91 126.065,-185.91 "/>
<polyline fill="none" stroke="black" points="-2.84217e-14,-161.91 126.065,-161.91 "/>
<text text-anchor="start" x="8" y="-146.71" font-family="Times,serif" font-size="14.00">_layout</text>
</g>
<!-- ApplicationController&#45;&gt;WelcomeController -->
<g id="edge6" class="edge"><title>ApplicationController&#45;&gt;WelcomeController</title>
<path fill="none" stroke="black" d="M161.466,-277.787C144.875,-262.133 126.885,-245.158 110.879,-230.055"/>
</g>
</g>
</svg>
