<?xml version="1.0" encoding="UTF-8" standalone="no"?>
<!DOCTYPE svg PUBLIC "-//W3C//DTD SVG 1.1//EN"
 "http://www.w3.org/Graphics/SVG/1.1/DTD/svg11.dtd">
<!-- Generated by graphviz version 2.36.0 (20140111.2315)
 -->
<!-- Title: models_diagram Pages: 1 -->
<svg width="484pt" height="722pt"
 viewBox="0.00 0.00 484.00 722.00" xmlns="http://www.w3.org/2000/svg" xmlns:xlink="http://www.w3.org/1999/xlink">
<g id="graph0" class="graph" transform="scale(1 1) rotate(0) translate(4 718)">
<title>models_diagram</title>
<polygon fill="white" stroke="none" points="-4,4 -4,-718 480,-718 480,4 -4,4"/>
<!-- _diagram_info -->
<g id="node1" class="node"><title>_diagram_info</title>
<text text-anchor="start" x="7.31226" y="-699.1" font-family="Times,serif" font-size="13.00">Models diagram</text>
<text text-anchor="start" x="7.31226" y="-686.1" font-family="Times,serif" font-size="13.00">Date: Apr 07 2014 &#45; 15:04</text>
<text text-anchor="start" x="7.31226" y="-673.1" font-family="Times,serif" font-size="13.00">Migration version: 20140406080552</text>
<text text-anchor="start" x="7.31226" y="-660.1" font-family="Times,serif" font-size="13.00">Generated by RailRoady 1.1.1</text>
<text text-anchor="start" x="7.31226" y="-647.1" font-family="Times,serif" font-size="13.00">http://railroady.prestonlee.com</text>
</g>
<!-- Campaign -->
<g id="node2" class="node"><title>Campaign</title>
<path fill="none" stroke="black" d="M259.495,-239C259.495,-239 368.505,-239 368.505,-239 374.505,-239 380.505,-245 380.505,-251 380.505,-251 380.505,-397 380.505,-397 380.505,-403 374.505,-409 368.505,-409 368.505,-409 259.495,-409 259.495,-409 253.495,-409 247.495,-403 247.495,-397 247.495,-397 247.495,-251 247.495,-251 247.495,-245 253.495,-239 259.495,-239"/>
<text text-anchor="middle" x="314" y="-393.8" font-family="Times,serif" font-size="14.00">Campaign</text>
<polyline fill="none" stroke="black" points="247.495,-387 380.505,-387 "/>
<text text-anchor="start" x="255.495" y="-371.8" font-family="Times,serif" font-size="14.00">id :integer</text>
<text text-anchor="start" x="255.495" y="-357.8" font-family="Times,serif" font-size="14.00">description :text</text>
<text text-anchor="start" x="255.495" y="-343.8" font-family="Times,serif" font-size="14.00">date_start :datetime</text>
<text text-anchor="start" x="255.495" y="-329.8" font-family="Times,serif" font-size="14.00">date_end :datetime</text>
<text text-anchor="start" x="255.495" y="-315.8" font-family="Times,serif" font-size="14.00">collected :integer</text>
<text text-anchor="start" x="255.495" y="-301.8" font-family="Times,serif" font-size="14.00">goal :integer</text>
<text text-anchor="start" x="255.495" y="-287.8" font-family="Times,serif" font-size="14.00">user_id :integer</text>
<text text-anchor="start" x="255.495" y="-273.8" font-family="Times,serif" font-size="14.00">created_at :datetime</text>
<text text-anchor="start" x="255.495" y="-259.8" font-family="Times,serif" font-size="14.00">updated_at :datetime</text>
<text text-anchor="start" x="255.495" y="-245.8" font-family="Times,serif" font-size="14.00">title :string</text>
</g>
<!-- Cost -->
<g id="node3" class="node"><title>Cost</title>
<path fill="none" stroke="black" d="M200.715,-80C200.715,-80 311.285,-80 311.285,-80 317.285,-80 323.285,-86 323.285,-92 323.285,-92 323.285,-182 323.285,-182 323.285,-188 317.285,-194 311.285,-194 311.285,-194 200.715,-194 200.715,-194 194.715,-194 188.715,-188 188.715,-182 188.715,-182 188.715,-92 188.715,-92 188.715,-86 194.715,-80 200.715,-80"/>
<text text-anchor="middle" x="256" y="-178.8" font-family="Times,serif" font-size="14.00">Cost</text>
<polyline fill="none" stroke="black" points="188.715,-172 323.285,-172 "/>
<text text-anchor="start" x="196.715" y="-156.8" font-family="Times,serif" font-size="14.00">id :integer</text>
<text text-anchor="start" x="196.715" y="-142.8" font-family="Times,serif" font-size="14.00">name :string</text>
<text text-anchor="start" x="196.715" y="-128.8" font-family="Times,serif" font-size="14.00">amount :integer</text>
<text text-anchor="start" x="196.715" y="-114.8" font-family="Times,serif" font-size="14.00">campaign_id :integer</text>
<text text-anchor="start" x="196.715" y="-100.8" font-family="Times,serif" font-size="14.00">created_at :datetime</text>
<text text-anchor="start" x="196.715" y="-86.8" font-family="Times,serif" font-size="14.00">updated_at :datetime</text>
</g>
<!-- Campaign&#45;&gt;Cost -->
<g id="edge2" class="edge"><title>Campaign&#45;&gt;Cost</title>
<path fill="none" stroke="#44e040" d="M285.171,-231.047C282.298,-221.882 279.422,-212.71 276.657,-203.89"/>
<ellipse fill="none" stroke="#44e040" cx="286.434" cy="-235.074" rx="4.00001" ry="4.00001"/>
<polygon fill="#44e040" stroke="#44e040" points="276.58,-203.644 277.883,-192.756 275.085,-198.873 273.589,-194.102 273.589,-194.102 273.589,-194.102 275.085,-198.873 269.295,-195.448 276.58,-203.644 276.58,-203.644"/>
</g>
<!-- Donation -->
<g id="node4" class="node"><title>Donation</title>
<path fill="none" stroke="black" d="M353.715,-73C353.715,-73 464.285,-73 464.285,-73 470.285,-73 476.285,-79 476.285,-85 476.285,-85 476.285,-189 476.285,-189 476.285,-195 470.285,-201 464.285,-201 464.285,-201 353.715,-201 353.715,-201 347.715,-201 341.715,-195 341.715,-189 341.715,-189 341.715,-85 341.715,-85 341.715,-79 347.715,-73 353.715,-73"/>
<text text-anchor="middle" x="409" y="-185.8" font-family="Times,serif" font-size="14.00">Donation</text>
<polyline fill="none" stroke="black" points="341.715,-179 476.285,-179 "/>
<text text-anchor="start" x="349.715" y="-163.8" font-family="Times,serif" font-size="14.00">id :integer</text>
<text text-anchor="start" x="349.715" y="-149.8" font-family="Times,serif" font-size="14.00">amount :integer</text>
<text text-anchor="start" x="349.715" y="-135.8" font-family="Times,serif" font-size="14.00">date :datetime</text>
<text text-anchor="start" x="349.715" y="-121.8" font-family="Times,serif" font-size="14.00">campaign_id :integer</text>
<text text-anchor="start" x="349.715" y="-107.8" font-family="Times,serif" font-size="14.00">user_id :integer</text>
<text text-anchor="start" x="349.715" y="-93.8" font-family="Times,serif" font-size="14.00">created_at :datetime</text>
<text text-anchor="start" x="349.715" y="-79.8" font-family="Times,serif" font-size="14.00">updated_at :datetime</text>
</g>
<!-- Campaign&#45;&gt;Donation -->
<g id="edge1" class="edge"><title>Campaign&#45;&gt;Donation</title>
<path fill="none" stroke="#00f207" d="M360.866,-231.734C364.604,-224.455 368.347,-217.166 372.002,-210.048"/>
<ellipse fill="none" stroke="#00f207" cx="359.019" cy="-235.332" rx="4.00002" ry="4.00002"/>
<polygon fill="#00f207" stroke="#00f207" points="372.011,-210.031 380.582,-203.191 374.295,-205.583 376.579,-201.135 376.579,-201.135 376.579,-201.135 374.295,-205.583 372.576,-199.08 372.011,-210.031 372.011,-210.031"/>
</g>
<!-- Use -->
<g id="node7" class="node"><title>Use</title>
<ellipse fill="none" stroke="black" cx="332" cy="-18" rx="27" ry="18"/>
<text text-anchor="middle" x="332" y="-13.8" font-family="Times,serif" font-size="14.00">Use</text>
</g>
<!-- Cost&#45;&gt;Use -->
<g id="edge4" class="edge"><title>Cost&#45;&gt;Use</title>
<path fill="none" stroke="#755773" d="M296.974,-72.9212C303.813,-62.3935 310.522,-52.0649 316.209,-43.3102"/>
<ellipse fill="none" stroke="#755773" cx="294.621" cy="-76.5444" rx="4.00002" ry="4.00002"/>
<polygon fill="#755773" stroke="#755773" points="316.28,-43.2004 325.501,-37.2656 319.004,-39.0073 321.727,-34.8143 321.727,-34.8143 321.727,-34.8143 319.004,-39.0073 317.954,-32.363 316.28,-43.2004 316.28,-43.2004"/>
</g>
<!-- Donation&#45;&gt;Use -->
<g id="edge6" class="edge"><title>Donation&#45;&gt;Use</title>
<path fill="none" stroke="#31eeaa" d="M362.839,-65.8598C357.623,-57.9339 352.602,-50.3051 348.182,-43.5875"/>
<ellipse fill="none" stroke="#31eeaa" cx="365.146" cy="-69.3646" rx="4.00002" ry="4.00002"/>
<polygon fill="#31eeaa" stroke="#31eeaa" points="348.06,-43.4031 346.322,-32.5759 345.311,-39.2265 342.563,-35.0498 342.563,-35.0498 342.563,-35.0498 345.311,-39.2265 338.804,-37.5237 348.06,-43.4031 348.06,-43.4031"/>
</g>
<!-- User -->
<g id="node5" class="node"><title>User</title>
<path fill="none" stroke="black" d="M296.588,-447C296.588,-447 413.412,-447 413.412,-447 419.412,-447 425.412,-453 425.412,-459 425.412,-459 425.412,-591 425.412,-591 425.412,-597 419.412,-603 413.412,-603 413.412,-603 296.588,-603 296.588,-603 290.588,-603 284.588,-597 284.588,-591 284.588,-591 284.588,-459 284.588,-459 284.588,-453 290.588,-447 296.588,-447"/>
<text text-anchor="middle" x="355" y="-587.8" font-family="Times,serif" font-size="14.00">User</text>
<polyline fill="none" stroke="black" points="284.588,-581 425.412,-581 "/>
<text text-anchor="start" x="292.588" y="-565.8" font-family="Times,serif" font-size="14.00">id :integer</text>
<text text-anchor="start" x="292.588" y="-551.8" font-family="Times,serif" font-size="14.00">firstname :string</text>
<text text-anchor="start" x="292.588" y="-537.8" font-family="Times,serif" font-size="14.00">lastname :string</text>
<text text-anchor="start" x="292.588" y="-523.8" font-family="Times,serif" font-size="14.00">mail :string</text>
<text text-anchor="start" x="292.588" y="-509.8" font-family="Times,serif" font-size="14.00">money :integer</text>
<text text-anchor="start" x="292.588" y="-495.8" font-family="Times,serif" font-size="14.00">created_at :datetime</text>
<text text-anchor="start" x="292.588" y="-481.8" font-family="Times,serif" font-size="14.00">updated_at :datetime</text>
<text text-anchor="start" x="292.588" y="-467.8" font-family="Times,serif" font-size="14.00">password_hash :string</text>
<text text-anchor="start" x="292.588" y="-453.8" font-family="Times,serif" font-size="14.00">password_salt :string</text>
</g>
<!-- User&#45;&gt;Campaign -->
<g id="edge8" class="edge"><title>User&#45;&gt;Campaign</title>
<path fill="none" stroke="#d3611a" d="M337.468,-438.907C336.133,-432.428 334.781,-425.865 333.435,-419.332"/>
<ellipse fill="none" stroke="#d3611a" cx="338.282" cy="-442.859" rx="4.00001" ry="4.00001"/>
<polygon fill="#d3611a" stroke="#d3611a" points="333.347,-418.901 335.736,-408.199 332.338,-414.004 331.329,-409.107 331.329,-409.107 331.329,-409.107 332.338,-414.004 326.921,-410.015 333.347,-418.901 333.347,-418.901"/>
</g>
<!-- User&#45;&gt;Donation -->
<g id="edge9" class="edge"><title>User&#45;&gt;Donation</title>
<path fill="none" stroke="#abd49c" d="M382.485,-439.175C384.996,-429.41 387.249,-419.537 389,-410 401.238,-343.36 406.044,-266.235 407.902,-211.168"/>
<ellipse fill="none" stroke="#abd49c" cx="381.444" cy="-443.109" rx="4.00001" ry="4.00001"/>
<polygon fill="#abd49c" stroke="#abd49c" points="407.903,-211.145 412.714,-201.291 408.059,-206.148 408.216,-201.15 408.216,-201.15 408.216,-201.15 408.059,-206.148 403.718,-201.009 407.903,-211.145 407.903,-211.145"/>
</g>
<!-- ActiveRecord::Base -->
<g id="node6" class="node"><title>ActiveRecord::Base</title>
<ellipse fill="none" stroke="black" cx="306" cy="-677" rx="80.9821" ry="18"/>
<text text-anchor="middle" x="306" y="-672.8" font-family="Times,serif" font-size="14.00">ActiveRecord::Base</text>
</g>
<!-- ActiveRecord::Base&#45;&gt;Campaign -->
<g id="edge3" class="edge"><title>ActiveRecord::Base&#45;&gt;Campaign</title>
<path fill="none" stroke="black" d="M296.586,-658.862C289.343,-644.646 279.93,-623.652 276,-604 262.228,-535.141 265.357,-515.411 276,-446 277.852,-433.921 280.687,-421.392 283.992,-409.176"/>
</g>
<!-- ActiveRecord::Base&#45;&gt;Cost -->
<g id="edge5" class="edge"><title>ActiveRecord::Base&#45;&gt;Cost</title>
<path fill="none" stroke="black" d="M293.06,-658.956C283.14,-644.963 270.001,-624.225 263,-604 209.663,-449.925 223.501,-400.4 238,-238 239.279,-223.68 241.567,-208.343 244.094,-194.087"/>
</g>
<!-- ActiveRecord::Base&#45;&gt;Donation -->
<g id="edge7" class="edge"><title>ActiveRecord::Base&#45;&gt;Donation</title>
<path fill="none" stroke="black" d="M354.396,-662.381C383,-651.562 416.88,-633.272 434,-604 508.237,-477.065 464.642,-295.881 432.981,-201.176"/>
</g>
<!-- ActiveRecord::Base&#45;&gt;User -->
<g id="edge10" class="edge"><title>ActiveRecord::Base&#45;&gt;User</title>
<path fill="none" stroke="black" d="M311.621,-658.793C316.171,-644.865 322.925,-624.188 329.757,-603.276"/>
</g>
</g>
</svg>
