<?xml version="1.0" encoding="UTF-8" standalone="no"?>
<!DOCTYPE svg PUBLIC "-//W3C//DTD SVG 1.1//EN"
 "http://www.w3.org/Graphics/SVG/1.1/DTD/svg11.dtd">
<!-- Generated by graphviz version 2.36.0 (20140111.2315)
 -->
<!-- Title: models_diagram Pages: 1 -->
<svg width="403pt" height="370pt"
 viewBox="0.00 0.00 403.00 370.00" xmlns="http://www.w3.org/2000/svg" xmlns:xlink="http://www.w3.org/1999/xlink">
<g id="graph0" class="graph" transform="scale(1 1) rotate(0) translate(4 366)">
<title>models_diagram</title>
<polygon fill="white" stroke="none" points="-4,4 -4,-366 399,-366 399,4 -4,4"/>
<!-- _diagram_info -->
<g id="node1" class="node"><title>_diagram_info</title>
<text text-anchor="start" x="7.31226" y="-347.1" font-family="Times,serif" font-size="13.00">Models diagram</text>
<text text-anchor="start" x="7.31226" y="-334.1" font-family="Times,serif" font-size="13.00">Date: Apr 07 2014 &#45; 15:04</text>
<text text-anchor="start" x="7.31226" y="-321.1" font-family="Times,serif" font-size="13.00">Migration version: 20140406080552</text>
<text text-anchor="start" x="7.31226" y="-308.1" font-family="Times,serif" font-size="13.00">Generated by RailRoady 1.1.1</text>
<text text-anchor="start" x="7.31226" y="-295.1" font-family="Times,serif" font-size="13.00">http://railroady.prestonlee.com</text>
</g>
<!-- Campaign -->
<g id="node2" class="node"><title>Campaign</title>
<ellipse fill="none" stroke="black" cx="278" cy="-162" rx="46.1851" ry="18"/>
<text text-anchor="middle" x="278" y="-157.8" font-family="Times,serif" font-size="14.00">Campaign</text>
</g>
<!-- Cost -->
<g id="node3" class="node"><title>Cost</title>
<ellipse fill="none" stroke="black" cx="264" cy="-90" rx="27" ry="18"/>
<text text-anchor="middle" x="264" y="-85.8" font-family="Times,serif" font-size="14.00">Cost</text>
</g>
<!-- Campaign&#45;&gt;Cost -->
<g id="edge2" class="edge"><title>Campaign&#45;&gt;Cost</title>
<path fill="none" stroke="#d99651" d="M272.928,-135.64C271.784,-129.92 270.566,-123.828 269.408,-118.042"/>
<ellipse fill="none" stroke="#d99651" cx="273.755" cy="-139.774" rx="4.00001" ry="4.00001"/>
<polygon fill="#d99651" stroke="#d99651" points="269.382,-117.91 271.833,-107.222 268.401,-113.007 267.421,-108.104 267.421,-108.104 267.421,-108.104 268.401,-113.007 263.008,-108.987 269.382,-117.91 269.382,-117.91"/>
</g>
<!-- Donation -->
<g id="node4" class="node"><title>Donation</title>
<ellipse fill="none" stroke="black" cx="352" cy="-90" rx="43.0291" ry="18"/>
<text text-anchor="middle" x="352" y="-85.8" font-family="Times,serif" font-size="14.00">Donation</text>
</g>
<!-- Campaign&#45;&gt;Donation -->
<g id="edge1" class="edge"><title>Campaign&#45;&gt;Donation</title>
<path fill="none" stroke="#369904" d="M300.742,-139.487C309.362,-131.333 319.201,-122.026 327.938,-113.761"/>
<ellipse fill="none" stroke="#369904" cx="297.698" cy="-142.367" rx="4.00002" ry="4.00002"/>
<polygon fill="#369904" stroke="#369904" points="328.01,-113.693 338.367,-110.09 331.642,-110.257 335.275,-106.821 335.275,-106.821 335.275,-106.821 331.642,-110.257 332.182,-103.552 328.01,-113.693 328.01,-113.693"/>
</g>
<!-- Use -->
<g id="node7" class="node"><title>Use</title>
<ellipse fill="none" stroke="black" cx="308" cy="-18" rx="27" ry="18"/>
<text text-anchor="middle" x="308" y="-13.8" font-family="Times,serif" font-size="14.00">Use</text>
</g>
<!-- Cost&#45;&gt;Use -->
<g id="edge4" class="edge"><title>Cost&#45;&gt;Use</title>
<path fill="none" stroke="#171abc" d="M278.263,-66.3083C282.808,-59.0779 287.858,-51.0444 292.487,-43.6803"/>
<ellipse fill="none" stroke="#171abc" cx="276.113" cy="-69.7294" rx="4.00002" ry="4.00002"/>
<polygon fill="#171abc" stroke="#171abc" points="292.733,-43.2876 301.865,-37.216 295.394,-39.0544 298.055,-34.8212 298.055,-34.8212 298.055,-34.8212 295.394,-39.0544 294.245,-32.4264 292.733,-43.2876 292.733,-43.2876"/>
</g>
<!-- Donation&#45;&gt;Use -->
<g id="edge6" class="edge"><title>Donation&#45;&gt;Use</title>
<path fill="none" stroke="#b56eb0" d="M337.179,-65.4214C332.753,-58.3804 327.892,-50.6468 323.429,-43.5454"/>
<ellipse fill="none" stroke="#b56eb0" cx="339.444" cy="-69.0244" rx="4.00002" ry="4.00002"/>
<polygon fill="#b56eb0" stroke="#b56eb0" points="323.371,-43.4545 321.86,-32.5933 320.711,-39.2213 318.05,-34.9881 318.05,-34.9881 318.05,-34.9881 320.711,-39.2213 314.24,-37.3829 323.371,-43.4545 323.371,-43.4545"/>
</g>
<!-- User -->
<g id="node5" class="node"><title>User</title>
<ellipse fill="none" stroke="black" cx="333" cy="-234" rx="27" ry="18"/>
<text text-anchor="middle" x="333" y="-229.8" font-family="Times,serif" font-size="14.00">User</text>
</g>
<!-- User&#45;&gt;Campaign -->
<g id="edge8" class="edge"><title>User&#45;&gt;Campaign</title>
<path fill="none" stroke="#98f4f3" d="M316.022,-211.392C310.119,-203.879 303.454,-195.396 297.372,-187.655"/>
<ellipse fill="none" stroke="#98f4f3" cx="318.595" cy="-214.666" rx="4.00002" ry="4.00002"/>
<polygon fill="#98f4f3" stroke="#98f4f3" points="297.243,-187.491 294.603,-176.848 294.154,-183.559 291.065,-179.628 291.065,-179.628 291.065,-179.628 294.154,-183.559 287.526,-182.408 297.243,-187.491 297.243,-187.491"/>
</g>
<!-- User&#45;&gt;Donation -->
<g id="edge9" class="edge"><title>User&#45;&gt;Donation</title>
<path fill="none" stroke="#a70cf4" d="M336.355,-207.929C339.712,-182.837 344.863,-144.338 348.328,-118.441"/>
<ellipse fill="none" stroke="#a70cf4" cx="335.822" cy="-211.907" rx="4.00001" ry="4.00001"/>
<polygon fill="#a70cf4" stroke="#a70cf4" points="348.374,-118.101 354.16,-108.786 349.037,-113.145 349.7,-108.189 349.7,-108.189 349.7,-108.189 349.037,-113.145 345.24,-107.592 348.374,-118.101 348.374,-118.101"/>
</g>
<!-- ActiveRecord::Base -->
<g id="node6" class="node"><title>ActiveRecord::Base</title>
<ellipse fill="none" stroke="black" cx="306" cy="-325" rx="80.9821" ry="18"/>
<text text-anchor="middle" x="306" y="-320.8" font-family="Times,serif" font-size="14.00">ActiveRecord::Base</text>
</g>
<!-- ActiveRecord::Base&#45;&gt;Campaign -->
<g id="edge3" class="edge"><title>ActiveRecord::Base&#45;&gt;Campaign</title>
<path fill="none" stroke="black" d="M303.004,-306.77C297.614,-275.782 286.348,-211.004 280.975,-180.106"/>
</g>
<!-- ActiveRecord::Base&#45;&gt;Cost -->
<g id="edge5" class="edge"><title>ActiveRecord::Base&#45;&gt;Cost</title>
<path fill="none" stroke="black" d="M292.278,-307.155C272.401,-281.547 236.5,-230.454 223,-180 218.864,-164.544 217.827,-159.141 223,-144 228.115,-129.028 239.367,-115.006 248.791,-105.15"/>
</g>
<!-- ActiveRecord::Base&#45;&gt;Donation -->
<g id="edge7" class="edge"><title>ActiveRecord::Base&#45;&gt;Donation</title>
<path fill="none" stroke="black" d="M326.794,-307.571C341.705,-294.372 360.587,-274.39 369,-252 387.684,-202.273 369.514,-138.216 358.723,-108.093"/>
</g>
<!-- ActiveRecord::Base&#45;&gt;User -->
<g id="edge10" class="edge"><title>ActiveRecord::Base&#45;&gt;User</title>
<path fill="none" stroke="black" d="M311.206,-306.84C316.018,-290.979 323.125,-267.553 327.902,-251.806"/>
</g>
</g>
</svg>
